<svg width="641" height="176" fill="none" version="1.1" viewBox="0 0 641 176" xmlns="http://www.w3.org/2000/svg">
 <g fill="#0c9">
  <path d="m193.77 120.11-14.266-39.895-14.71 39.895h28.976zm-14.378-110.7 67.716 155.95h-35.338l-6.365-16.513h-52.022l-6.149 16.513h-35.557l67.715-155.95z"/>
  <path d="m286.16 12.008v122.69h49.827v30.671h-81.218v-153.36h31.391z"/>
  <path d="m380.07 42.679v92.017h15.366c61.022 0 61.022-92.017 0-92.017h-15.366zm15.366 122.69h-46.756v-153.36h46.756c104.48 0 104.48 153.36 0 153.36z"/>
  <path d="m117.09 119.82c-2.243-28.38-29.455-39.663-49.722-45.681-25.773-7.6567-26.309-15.685-26.597-19.964-0.4358-5.9575 4.3582-11.691 9.3121-14.282 2.0911-1.0915 5.3417-1.6952 9.1481-1.6952 9.2961 0 20.503 3.4225 29.24 8.9282l1.9752 1.2434 14.773-30.559-1.643-0.9796c-12.874-7.6807-26.485-11.571-40.443-11.571-12.155 0-22.466 3.1187-28.064 6.0414-15.861 8.2765-26.469 24.154-27.688 41.426-0.91161 12.874 3.0947 24.042 11.907 33.182 9.0322 9.376 21.667 16.149 37.548 20.132 17.776 4.454 23.082 10.759 24.402 15.261 1.2635 4.306-0.7357 8.437-2.8308 10.66-4.0743 4.334-11.023 6.417-19.78 6.017-15.05-0.719-35.173-10.203-43.326-16.485l-2.1511-1.659-13.154 31.407 1.3834 0.959c16.841 11.715 35.341 18.133 54.993 19.072 1.2395 0.06 2.467 0.088 3.6865 0.088h4e-3c16.969 0 32.19-5.797 42.861-16.321 9.848-9.72 15.142-22.886 14.166-35.221z"/>
  <path d="m639.11 75.002c-4e-3 -0.032-0.012-0.064-0.02-0.1-0.219-1.3594-0.475-2.7108-0.763-4.0543-0.068-0.2998-0.144-0.5957-0.212-0.8956-0.252-1.0955-0.512-2.191-0.808-3.2706-0.064-0.2479-0.144-0.4918-0.212-0.7397-0.324-1.1515-0.667-2.299-1.043-3.4305-0.048-0.148-0.104-0.2959-0.156-0.4438-0.42-1.2515-0.868-2.495-1.352-3.7185-0.012-0.0319-0.028-0.0639-0.04-0.0959-4.202-10.596-10.627-20.156-18.848-28.052-0.172-0.16-0.348-0.3199-0.519-0.4798-0.796-0.7517-1.608-1.4874-2.439-2.2111-0.372-0.3199-0.756-0.6357-1.136-0.9556-0.656-0.5438-1.315-1.0836-1.987-1.6113-0.476-0.3719-0.956-0.7357-1.443-1.0956-0.628-0.4718-1.264-0.9356-1.908-1.3874-0.487-0.3438-0.979-0.6797-1.475-1.0115-0.72-0.4838-1.447-0.9516-2.183-1.4114-0.256-0.16-0.516-0.3199-0.772-0.4758-8.988-5.4777-18.836-9.0682-29.052-10.656l26.733 22.514-22.714 13.214c2.767 1.0516 5.445 2.371 8 3.9664 0.424 0.2678 0.848 0.5397 1.268 0.8196 0.28 0.1879 0.552 0.3759 0.828 0.5678 0.179 0.1279 0.359 0.2439 0.535 0.3718 0.208 0.148 0.404 0.3079 0.608 0.4598 0.264 0.1959 0.524 0.3959 0.788 0.5958 0.412 0.3238 0.815 0.6557 1.219 0.9916 0.192 0.1639 0.388 0.3238 0.58 0.4877 0.52 0.4519 1.024 0.9117 1.523 1.3835 0.06 0.0559 0.12 0.1079 0.18 0.1679 5.382 5.1378 9.388 11.455 11.747 18.488 0.016 0.0559 0.04 0.1119 0.056 0.1679 0.228 0.6837 0.436 1.3794 0.632 2.0751 0.032 0.116 0.068 0.2279 0.1 0.3439 0.176 0.6597 0.34 1.3234 0.488 1.9911 0.032 0.144 0.072 0.2799 0.1 0.4238 0.176 0.7957 0.328 1.5994 0.455 2.411 0.012 0.068 0.02 0.14 0.032 0.2079 0.108 0.7037 0.208 1.4074 0.284 2.1111 8e-3 0.088 0.016 0.176 0.024 0.2639 1.176 11.271-1.787 22.43-8.476 31.686-4.506 6.234-10.364 11.132-17.089 14.406-0.324 0.16-0.328 0.128 4e-3 -0.032l0.72-7.129-40.727 22.439 35.325 31.007s0.752-7.949 0.98-9.704c2.167-0.296 3.558-0.828 4.234-1.008 0.52-0.14 1.027-0.308 1.543-0.456 0.78-0.228 1.56-0.443 2.327-0.691 0.36-0.12 0.712-0.252 1.072-0.376 0.907-0.308 1.815-0.616 2.707-0.956 0.176-0.068 0.348-0.144 0.523-0.216 34.218-13.334 55.817-49.239 49.759-86.899z"/>
  <path d="m521.39 142.2 21.695-11.951c-2.719-1.108-5.322-2.459-7.769-4.058-0.012-8e-3 -0.028-0.016-0.036-0.02-0.608-0.4-1.203-0.808-1.787-1.232-0.012-8e-3 -0.028-0.02-0.04-0.028-3.515-2.543-6.617-5.538-9.248-8.896-0.096-0.124-0.196-0.244-0.292-0.368-0.296-0.384-0.58-0.78-0.86-1.171-0.192-0.264-0.383-0.524-0.567-0.792-0.224-0.328-0.44-0.664-0.66-0.996-0.224-0.348-0.448-0.695-0.664-1.051-0.176-0.292-0.352-0.584-0.52-0.88-0.244-0.412-0.475-0.828-0.703-1.251-0.14-0.26-0.28-0.516-0.412-0.78-0.244-0.468-0.476-0.944-0.704-1.423-0.108-0.236-0.22-0.468-0.328-0.704-0.232-0.512-0.452-1.036-0.667-1.563-0.088-0.212-0.18-0.428-0.264-0.644-0.212-0.552-0.416-1.112-0.608-1.675-0.072-0.2-0.144-0.4-0.212-0.604-0.196-0.584-0.372-1.176-0.54-1.771-0.052-0.188-0.116-0.3763-0.168-0.5682-0.172-0.6238-0.32-1.2595-0.467-1.8912-0.036-0.168-0.08-0.3319-0.12-0.4998-0.168-0.7997-0.324-1.6073-0.456-2.423-0.128-0.7837-0.228-1.5633-0.316-2.343-2.131-19.568 8.516-37.956 25.541-46.3l-0.724 7.125 40.727-23.69-35.321-29.755-0.979 9.6959-0.264 0.05997c-0.396 0.08397-0.788 0.18792-1.18 0.27991-0.939 0.2159-1.875 0.4318-2.799 0.6797-0.196 0.052-0.387 0.1159-0.583 0.1679-17.389 4.798-32.527 15.258-43.246 30.087-11.607 16.053-16.737 35.421-14.666 54.973 8e-3 0.1119 0.016 0.2239 0.028 0.3399 0.148 1.3394 0.328 2.6788 0.544 4.0267 0.224 1.395 0.488 2.782 0.784 4.154 0.064 0.292 0.139 0.576 0.207 0.867 0.248 1.108 0.512 2.211 0.812 3.303 0.064 0.244 0.14 0.484 0.212 0.728 0.324 1.155 0.668 2.303 1.044 3.438 0.048 0.148 0.104 0.296 0.152 0.444 0.423 1.252 0.871 2.491 1.355 3.714 0.012 0.036 0.028 0.068 0.044 0.104 4.198 10.592 10.623 20.152 18.848 28.049 0.164 0.16 0.34 0.311 0.504 0.467 0.803 0.756 1.623 1.5 2.455 2.223 0.368 0.32 0.743 0.628 1.115 0.94 0.664 0.552 1.332 1.1 2.011 1.635 0.468 0.364 0.94 0.72 1.416 1.076 0.711 0.528 1.423 1.055 2.155 1.563 0.288 0.2 0.576 0.404 0.867 0.6 0.944 0.64 1.9 1.251 2.863 1.847 0.156 0.1 0.308 0.208 0.464 0.304l0.012-0.016c9.276 5.654 19.464 9.284 30.031 10.788l-27.716-24.334z"/>
 </g>
</svg>
